<?xml version="1.0" encoding="utf-8"?>
<!-- Generator: Adobe Illustrator 16.0.3, SVG Export Plug-In . SVG Version: 6.00 Build 0)  -->
<!DOCTYPE svg PUBLIC "-//W3C//DTD SVG 1.1//EN" "http://www.w3.org/Graphics/SVG/1.1/DTD/svg11.dtd">
<svg version="1.1" xmlns="http://www.w3.org/2000/svg" xmlns:xlink="http://www.w3.org/1999/xlink" x="0px" y="0px" width="200px"
	 height="230px" viewBox="0 0 200 230" enable-background="new 0 0 200 230" xml:space="preserve">
<g id="_x32_3-3" display="none">
	<polygon display="inline" fill="#6B727B" points="49.509,18.81 48.553,125.705 96.125,63.029 	"/>
</g>
<g id="_x32_3-2" display="none">
	<polygon display="inline" fill="#6B727B" points="135.117,106.973 96.125,63.029 48.553,125.705 	"/>
</g>
<g id="_x32_3-1" display="none">
	<polygon display="inline" fill="#6B727B" points="138.058,6.293 96.125,63.029 135.117,106.973 	"/>
</g>
<g id="_x32_3-0" display="none">
	<polygon display="inline" fill="#6B727B" points="49.509,18.81 96.125,63.029 138.058,6.293 	"/>
</g>
<g id="_x32_2-3" display="none">
	<polygon display="inline" fill="#6B727B" points="55.899,143.535 59.734,35.664 127.394,56.633 	"/>
</g>
<g id="_x32_2-2" display="none">
	<polygon display="inline" fill="#6B727B" points="153.553,125.705 127.394,56.633 55.899,143.535 	"/>
</g>
<g id="_x32_2-1" display="none">
	<polygon display="inline" fill="#6B727B" points="153.553,125.705 127.394,56.633 154.509,18.81 	"/>
</g>
<g id="_x32_2-0" display="none">
	<polygon display="inline" fill="#6B727B" points="59.734,35.664 154.509,18.81 127.394,56.633 	"/>
</g>
<g id="_x32_1-3" display="none">
	<polygon display="inline" fill="#6B727B" points="58.554,160.916 147.932,122.436 61.505,47.447 	"/>
</g>
<g id="_x32_1-2" display="none">
	<polygon display="inline" fill="#6B727B" points="160.899,143.535 147.932,122.436 58.554,160.916 	"/>
</g>
<g id="_x32_1-1" display="none">
	<polygon display="inline" fill="#6B727B" points="164.734,35.664 160.899,143.535 147.932,122.436 	"/>
</g>
<g id="_x32_1-0_1_" display="none">
	<polygon display="inline" fill="#6B727B" points="164.734,35.664 147.932,122.436 61.505,47.447 	"/>
</g>
<g id="_x32_0-3" display="none">
	<polygon display="inline" fill="#6B727B" points="49.764,179.969 95.915,112.191 51.489,61.216 	"/>
</g>
<g id="_x32_0-2" display="none">
	<polygon display="inline" fill="#6B727B" points="95.915,112.191 49.764,179.969 163.554,160.916 	"/>
</g>
<g id="_x32_0-1" display="none">
	<polygon display="inline" fill="#6B727B" points="95.915,112.191 166.505,47.447 163.554,160.916 	"/>
</g>
<g id="_x32_0-0" display="none">
	<polygon display="inline" fill="#6B727B" points="51.489,61.216 166.505,47.447 95.915,112.191 	"/>
</g>
<g id="_x31_9-3" display="none">
	<polygon display="inline" fill="#6B727B" points="32.361,78.031 101.277,185.352 31.152,202.506 	"/>
</g>
<g id="_x31_9-2" display="none">
	<polygon display="inline" fill="#6B727B" points="154.764,179.969 31.152,202.506 101.277,185.352 	"/>
</g>
<g id="_x31_9-1" display="none">
	<polygon display="inline" fill="#6B727B" points="156.489,61.216 154.764,179.969 101.277,185.352 	"/>
</g>
<g id="_x31_9-0" display="none">
	<polygon display="inline" fill="#6B727B" points="156.489,61.216 101.277,185.352 32.361,78.031 	"/>
</g>
<g id="_x31_8-3" display="none">
	<polygon display="inline" fill="#6B727B" points="4.919,226.432 0.912,96.037 48.737,152.879 	"/>
</g>
<g id="_x31_8-2" display="none">
	<polygon display="inline" fill="#6B727B" points="4.919,226.432 136.152,202.506 48.737,152.879 	"/>
</g>
<g id="_x31_8-1" display="none">
	<polygon display="inline" fill="#6B727B" points="137.361,78.031 136.152,202.506 48.737,152.879 	"/>
</g>
<g id="_x31_8-0" display="none">
	<polygon display="inline" fill="#6B727B" points="137.361,78.031 48.737,152.879 0.912,96.037 	"/>
</g>
<g id="_x31_7-3" display="none">
	<polygon display="inline" fill="#6B727B" points="49.509,123.811 118.883,40.871 52.742,19.058 	"/>
</g>
<g id="_x31_7-2" display="none">
	<polygon display="inline" fill="#6B727B" points="49.509,123.811 138.058,111.293 118.883,40.871 	"/>
</g>
<g id="_x31_7-1" display="none">
	<polygon display="inline" fill="#6B727B" points="141.848,10.697 138.058,111.293 118.883,40.871 	"/>
</g>
<g id="_x31_7-0" display="none">
	<polyline display="inline" fill="#6B727B" points="52.783,18.937 118.883,40.871 141.848,10.697 	"/>
</g>
<g id="_x31_6-3" display="none">
	<polygon display="inline" fill="#6B727B" points="59.734,140.664 63.827,27.244 144.263,63.302 	"/>
</g>
<g id="_x31_6-2" display="none">
	<polygon display="inline" fill="#6B727B" points="154.509,123.811 59.734,140.664 144.263,63.302 	"/>
</g>
<g id="_x31_6-1" display="none">
	<polygon display="inline" fill="#6B727B" points="154.509,123.811 157.783,18.937 144.263,63.302 	"/>
</g>
<g id="_x31_6-0" display="none">
	<polygon display="inline" fill="#6B727B" points="63.827,27.244 144.263,63.302 157.783,18.937 	"/>
</g>
<g id="_x31_5-3" display="none">
	<polygon display="inline" fill="#6B727B" points="62.814,36.875 96.747,101.799 61.505,152.447 	"/>
</g>
<g id="_x31_5-2" display="none">
	<polygon display="inline" fill="#6B727B" points="164.734,140.664 96.747,101.799 59.402,152.73 	"/>
</g>
<g id="_x31_5-1" display="none">
	<polygon display="inline" fill="#6B727B" points="168.827,27.244 96.747,101.799 164.734,140.664 	"/>
</g>
<g id="_x31_5-0" display="none">
	<polygon display="inline" fill="#6B727B" points="62.814,36.875 96.747,101.799 168.827,27.244 	"/>
</g>
<g id="_x31_4-3" display="none">
	<polygon display="inline" fill="#6B727B" points="51.489,166.217 124.214,72.824 53.22,47.184 	"/>
</g>
<g id="_x31_4-2" display="none">
	<polygon display="inline" fill="#6B727B" points="51.489,166.217 166.505,152.447 124.214,72.824 	"/>
</g>
<g id="_x31_4-1" display="none">
	<polygon display="inline" fill="#6B727B" points="124.214,72.824 167.814,36.875 166.505,152.447 	"/>
</g>
<g id="_x31_4-0" display="none">
	<polygon display="inline" fill="#6B727B" points="124.214,72.824 167.814,36.875 53.22,47.184 	"/>
</g>
<g id="_x31_3-3" display="none">
	<polygon display="inline" fill="#6B727B" points="32.361,183.031 87.586,154.721 33.571,58.607 	"/>
</g>
<g id="_x31_3-2" display="none">
	<polygon display="inline" fill="#6B727B" points="32.361,183.031 156.489,166.217 87.586,154.721 	"/>
</g>
<g id="_x31_3-1" display="none">
	<polygon display="inline" fill="#6B727B" points="156.489,166.217 158.22,47.184 87.586,154.721 	"/>
</g>
<g id="_x31_3-0" display="none">
	<polygon display="inline" fill="#6B727B" points="87.586,154.721 33.571,58.607 158.22,47.184 	"/>
</g>
<g id="_x31_2-3" display="none">
	<polygon display="inline" fill="#6B727B" points="76.386,185.891 0.912,201.037 2.855,70.936 	"/>
</g>
<g id="_x31_2-2" display="none">
	<polygon display="inline" fill="#6B727B" points="0.912,201.037 137.361,183.031 76.386,185.891 	"/>
</g>
<g id="_x31_2-1" display="none">
	<polygon display="inline" fill="#6B727B" points="138.571,58.607 137.361,183.031 76.386,185.891 	"/>
</g>
<g id="_x31_2-0" display="none">
	<polygon display="inline" fill="#6B727B" points="138.571,58.607 76.386,185.891 2.855,70.936 	"/>
</g>
<g id="_x31_1-3" display="none">
	<polygon display="inline" fill="#6B727B" points="101.73,57.711 56.147,16.21 52.783,123.938 	"/>
</g>
<g id="_x31_1-2" display="none">
	<polygon display="inline" fill="#6B727B" points="52.783,123.938 141.848,115.697 101.73,57.711 	"/>
</g>
<g id="_x31_1-1" display="none">
	<polygon display="inline" fill="#6B727B" points="144.867,12.328 141.848,115.697 101.73,57.711 	"/>
</g>
<g id="_x31_1-0" display="none">
	<polygon display="inline" fill="#6B727B" points="144.867,12.328 56.147,16.21 101.73,57.711 	"/>
</g>
<g id="_x31_0-3" display="none">
	<polygon display="inline" fill="#6B727B" points="63.827,132.244 66.16,20.853 100.311,82.229 	"/>
</g>
<g id="_x31_0-2" display="none">
	<polygon display="inline" fill="#6B727B" points="157.783,123.938 63.827,132.244 100.311,82.229 	"/>
</g>
<g id="_x31_0-1" display="none">
	<polygon display="inline" fill="#6B727B" points="157.783,123.938 100.311,82.229 161.147,16.21 	"/>
</g>
<g id="_x31_0-0" display="none">
	<polygon display="inline" fill="#6B727B" points="100.311,82.229 66.16,20.853 161.147,16.21 	"/>
</g>
<g id="_x39_-3" display="none">
	<polygon display="inline" fill="#6B727B" points="62.814,141.875 64.074,25.722 109.981,71.796 	"/>
</g>
<g id="_x39_-2" display="none">
	<polygon display="inline" fill="#6B727B" points="168.827,132.244 62.814,141.875 109.981,71.796 	"/>
</g>
<g id="_x39_-1" display="none">
	<polygon display="inline" fill="#6B727B" points="168.827,132.244 109.981,71.796 171.16,20.853 	"/>
</g>
<g id="_x39_-0" display="none">
	<polygon display="inline" fill="#6B727B" points="109.981,71.796 171.16,20.853 64.074,25.722 	"/>
</g>
<g id="_x38_-3" display="none">
	<polygon display="inline" fill="#6B727B" points="53.22,152.184 51.142,29.673 107,120.521 	"/>
</g>
<g id="_x38_-2" display="none">
	<polygon display="inline" fill="#6B727B" points="167.814,141.875 53.22,152.184 107,120.521 	"/>
</g>
<g id="_x38_-1" display="none">
	<polygon display="inline" fill="#6B727B" points="107,120.521 167.814,141.875 169.074,25.722 	"/>
</g>
<g id="_x38_-0" display="none">
	<polygon display="inline" fill="#6B727B" points="107,120.521 51.142,29.673 169.074,25.722 	"/>
</g>
<g id="_x37_-3" display="none">
	<polygon display="inline" fill="#6B727B" points="33.571,163.607 33.611,36.785 105.45,65.536 	"/>
</g>
<g id="_x37_-2" display="none">
	<polygon display="inline" fill="#6B727B" points="33.571,163.607 158.22,152.184 105.45,65.536 	"/>
</g>
<g id="_x37_-1" display="none">
	<polygon id="_x30_-3_2_" display="inline" fill="#6B727B" points="158.22,152.184 105.45,65.536 156.142,29.673 	"/>
</g>
<g id="_x37_-0">
	<polygon fill="#6B727B" points="105.45,65.535 33.611,36.785 156.142,29.674 	"/>
</g>
<g id="_x36_-3" display="none">
	<polygon display="inline" fill="#6B727B" points="1.804,43.056 2.855,175.936 48.737,137.002 	"/>
</g>
<g id="_x36_-2" display="none">
	<polygon display="inline" fill="#6B727B" points="2.855,175.936 48.737,137.002 138.571,163.607 	"/>
</g>
<g id="_x36_-1" display="none">
	<polygon display="inline" fill="#6B727B" points="138.611,36.785 138.571,163.607 48.737,137.002 	"/>
</g>
<g id="_x36_-0" display="none">
	<polyline display="inline" fill="#6B727B" points="138.611,36.785 48.737,137.002 1.804,43.056 138.611,36.785 	"/>
</g>
<g id="_x35_-3" display="none">
	<polygon display="inline" fill="#6B727B" points="56.147,121.21 94.427,69.856 59.476,14.562 	"/>
</g>
<g id="_x35_-2" display="none">
	<polygon display="inline" fill="#6B727B" points="56.147,121.21 144.867,117.328 94.427,69.856 	"/>
</g>
<g id="_x35_-1" display="none">
	<polygon display="inline" fill="#6B727B" points="94.427,69.856 147.115,11.432 144.867,117.328 	"/>
</g>
<g id="_x35_-0" display="none">
	<polygon display="inline" fill="#6B727B" points="59.476,14.562 147.115,11.432 94.427,69.856 	"/>
</g>
<g id="_x34_-3" display="none">
	<polygon display="inline" fill="#6B727B" points="68.494,14.562 66.16,125.853 120.658,95.939 	"/>
</g>
<g id="_x34_-2" display="none">
	<polygon display="inline" fill="#6B727B" points="66.16,125.853 161.147,121.21 120.658,95.939 	"/>
</g>
<g id="_x34_-1" display="none">
	<polygon display="inline" fill="#6B727B" points="120.658,95.939 161.147,121.21 164.476,14.562 	"/>
</g>
<g id="_x34_-0" display="none">
	<polygon display="inline" fill="#6B727B" points="68.494,14.562 164.476,14.562 120.658,95.939 	"/>
</g>
<g id="_x33_-3" display="none">
	<polygon display="inline" fill="#6B727B" points="64.074,130.723 67.075,14.562 134.89,36.993 	"/>
</g>
<g id="_x33_-2" display="none">
	<polygon display="inline" fill="#6B727B" points="64.074,130.723 171.16,125.853 134.89,36.993 	"/>
</g>
<g id="_x33_-1" display="none">
	<polygon display="inline" fill="#6B727B" points="173.494,14.562 171.16,125.853 134.89,36.993 	"/>
</g>
<g id="_x33_-0" display="none">
	<polygon display="inline" fill="#6B727B" points="67.075,14.562 173.494,14.562 134.89,36.993 	"/>
</g>
<g id="_x32_-3" display="none">
	<polygon display="inline" fill="#6B727B" points="51.142,134.674 56.236,13.324 126.17,117.328 	"/>
</g>
<g id="_x32_-2" display="none">
	<polygon display="inline" fill="#6B727B" points="51.142,134.674 126.17,117.328 169.074,130.723 	"/>
</g>
<g id="_x32_-1" display="none">
	<polygon display="inline" fill="#6B727B" points="169.074,130.723 172.075,14.562 126.17,117.328 	"/>
</g>
<g id="_x32_-0" display="none">
	<polygon display="inline" fill="#6B727B" points="126.17,117.328 56.236,13.324 172.075,14.562 	"/>
</g>
<g id="_x31_-3" display="none">
	<polygon display="inline" fill="#6B727B" points="33.611,141.785 134.857,98.938 36.071,14.562 	"/>
</g>
<g id="_x31_-2" display="none">
	<polygon id="_x3C_Path_x3E__6_" display="inline" fill="#6B727B" points="156.142,134.674 33.611,141.785 134.857,98.938 	"/>
</g>
<g id="_x31_-1" display="none">
	<polygon id="_x3C_Path_x3E__1_" display="inline" fill="#6B727B" points="161.236,13.324 134.857,98.938 156.142,134.674 	"/>
</g>
<g id="_x31_-0" display="none">
	<polygon display="inline" fill="#6B727B" points="36.071,14.562 134.857,98.938 161.236,13.324 	"/>
</g>
<g id="_x30_-3_1_" display="none">
	<polygon id="_x3C_Path_x3E__2_" display="inline" fill="#6B727B" points="1.804,148.057 31.001,88.114 0.746,14.562 	"/>
</g>
<g id="_x30_-2" display="none">
	<polygon display="inline" fill="#6B727B" points="1.804,148.057 138.611,141.785 31.001,88.114 	"/>
</g>
<g id="_x30_-1" display="none">
	<polygon display="inline" fill="#6B727B" points="138.611,141.785 141.071,14.562 31.001,88.114 	"/>
</g>
<g id="_x30_-0" display="none">
	<polygon display="inline" fill="#6B727B" points="0.746,14.562 31.001,88.114 141.071,14.562 	"/>
</g>
<g id="nyt_x5F_exporter_x5F_info" display="none">
</g>
</svg>
